<?xml version="1.0" encoding="UTF-8" standalone="no"?>
<svg
   data-v-fde0c5aa=""
   viewBox="0 0 300 300"
   class="iconLeft"
   version="1.1"
   id="svg27"
   sodipodi:docname="CoverSquare.svg"
   inkscape:export-filename="C:\Users\dmtho\Downloads\UniversXTLogos\png\CoverSquare\512x512.png"
   inkscape:export-xdpi="163.84"
   inkscape:export-ydpi="163.84"
   inkscape:version="1.1.1 (3bf5ae0d25, 2021-09-20)"
   xmlns:inkscape="http://www.inkscape.org/namespaces/inkscape"
   xmlns:sodipodi="http://sodipodi.sourceforge.net/DTD/sodipodi-0.dtd"
   xmlns:xlink="http://www.w3.org/1999/xlink"
   xmlns="http://www.w3.org/2000/svg"
   xmlns:svg="http://www.w3.org/2000/svg">
  <sodipodi:namedview
     id="namedview29"
     pagecolor="#505050"
     bordercolor="#eeeeee"
     borderopacity="1"
     inkscape:pageshadow="0"
     inkscape:pageopacity="0"
     inkscape:pagecheckerboard="0"
     showgrid="false"
     inkscape:zoom="1.9610428"
     inkscape:cx="149.66527"
     inkscape:cy="163.43345"
     inkscape:window-width="1920"
     inkscape:window-height="1017"
     inkscape:window-x="-8"
     inkscape:window-y="-8"
     inkscape:window-maximized="1"
     inkscape:current-layer="svg27" />
  <!---->
  <defs
     data-v-fde0c5aa=""
     id="defs2">
    <!---->
    <linearGradient
       inkscape:collect="always"
       xlink:href="#93d4a404-efd9-4d4a-a6f8-e924888453f4"
       id="linearGradient215"
       gradientTransform="matrix(1.5425595,0,0,0.75514137,-204.9026,-172.06072)"
       x1="17.727535"
       y1="305.46896"
       x2="340.50204"
       y2="305.46896"
       gradientUnits="userSpaceOnUse" />
    <linearGradient
       data-v-423bf9ae=""
       gradientTransform="rotate(25)"
       id="93d4a404-efd9-4d4a-a6f8-e924888453f4"
       x1="0"
       y1="0"
       x2="1"
       y2="0">
      <stop
         data-v-423bf9ae=""
         offset="0%"
         style="stop-color: rgb(24, 27, 128); stop-opacity: 1;"
         id="stop35" />
      <stop
         data-v-423bf9ae=""
         offset="100%"
         style="stop-color: rgb(24, 30, 217); stop-opacity: 1;"
         id="stop37" />
    </linearGradient>
    <linearGradient
       inkscape:collect="always"
       xlink:href="#93d4a404-efd9-4d4a-a6f8-e924888453f4"
       id="linearGradient217"
       gradientTransform="matrix(1.3903402,0,0,0.83781685,-204.9026,-172.06072)"
       x1="86.862518"
       y1="93.313927"
       x2="377.78369"
       y2="93.313927"
       gradientUnits="userSpaceOnUse" />
    <linearGradient
       inkscape:collect="always"
       xlink:href="#93d4a404-efd9-4d4a-a6f8-e924888453f4"
       id="linearGradient219"
       gradientTransform="matrix(1.0157816,0,0,1.1467529,-204.9026,-172.06072)"
       x1="26.921986"
       y1="79.885193"
       x2="212.13536"
       y2="79.885193"
       gradientUnits="userSpaceOnUse" />
    <linearGradient
       inkscape:collect="always"
       xlink:href="#93d4a404-efd9-4d4a-a6f8-e924888453f4"
       id="linearGradient428"
       gradientUnits="userSpaceOnUse"
       gradientTransform="matrix(1.5425595,0,0,0.75514137,-204.9026,-172.06072)"
       x1="17.727535"
       y1="305.46896"
       x2="340.50204"
       y2="305.46896" />
    <linearGradient
       inkscape:collect="always"
       xlink:href="#93d4a404-efd9-4d4a-a6f8-e924888453f4"
       id="linearGradient430"
       gradientUnits="userSpaceOnUse"
       gradientTransform="matrix(1.5425595,0,0,0.75514137,-204.9026,-172.06072)"
       x1="17.727535"
       y1="305.46896"
       x2="340.50204"
       y2="305.46896" />
    <linearGradient
       inkscape:collect="always"
       xlink:href="#93d4a404-efd9-4d4a-a6f8-e924888453f4"
       id="linearGradient432"
       gradientUnits="userSpaceOnUse"
       gradientTransform="matrix(1.5425595,0,0,0.75514137,-204.9026,-172.06072)"
       x1="17.727535"
       y1="305.46896"
       x2="340.50204"
       y2="305.46896" />
    <linearGradient
       inkscape:collect="always"
       xlink:href="#93d4a404-efd9-4d4a-a6f8-e924888453f4"
       id="linearGradient434"
       gradientUnits="userSpaceOnUse"
       gradientTransform="matrix(1.5425595,0,0,0.75514137,-204.9026,-172.06072)"
       x1="17.727535"
       y1="305.46896"
       x2="340.50204"
       y2="305.46896" />
    <linearGradient
       inkscape:collect="always"
       xlink:href="#93d4a404-efd9-4d4a-a6f8-e924888453f4"
       id="linearGradient436"
       gradientUnits="userSpaceOnUse"
       gradientTransform="matrix(1.3903402,0,0,0.83781685,-204.9026,-172.06072)"
       x1="86.862518"
       y1="93.313927"
       x2="377.78369"
       y2="93.313927" />
  </defs>
  <rect
     data-v-fde0c5aa=""
     fill="#E6E6F1"
     x="0"
     y="0"
     width="300px"
     height="300px"
     class="logo-background-square"
     id="rect4" />
  <defs
     data-v-fde0c5aa=""
     id="defs6">
    <!---->
  </defs>
  <g
     data-v-fde0c5aa=""
     id="c5168218-1ca6-4546-b24b-e7400d35f467"
     fill="#090A35"
     transform="matrix(2.582237730000735,0,0,2.582237730000735,97.68053871782837,129.74234493426582)">
    <path
       d="M4.66 12.74L4.66 12.74Q3.46 12.74 2.67 12.26L2.67 12.26L2.67 12.26Q1.89 11.77 1.52 10.92L1.52 10.92L1.52 10.92Q1.15 10.07 1.15 8.96L1.15 8.96L1.15 2.95L2.54 2.95L2.54 8.70L2.54 8.70Q2.54 10.01 3.01 10.71L3.01 10.71L3.01 10.71Q3.49 11.41 4.66 11.41L4.66 11.41L4.66 11.41Q5.84 11.41 6.32 10.71L6.32 10.71L6.32 10.71Q6.80 10.01 6.80 8.70L6.80 8.70L6.80 2.95L8.20 2.95L8.20 8.89L8.20 8.89Q8.20 10.03 7.82 10.89L7.82 10.89L7.82 10.89Q7.45 11.76 6.66 12.25L6.66 12.25L6.66 12.25Q5.87 12.74 4.66 12.74L4.66 12.74ZM10.42 12.61L10.42 5.78L11.73 5.78L11.73 6.78L11.73 6.78Q12.10 6.23 12.65 5.94L12.65 5.94L12.65 5.94Q13.21 5.65 13.84 5.65L13.84 5.65L13.84 5.65Q14.66 5.65 15.19 6.03L15.19 6.03L15.19 6.03Q15.72 6.42 15.97 7.06L15.97 7.06L15.97 7.06Q16.22 7.70 16.22 8.48L16.22 8.48L16.22 12.61L14.91 12.61L14.91 8.63L14.91 8.63Q14.91 7.86 14.55 7.35L14.55 7.35L14.55 7.35Q14.20 6.83 13.47 6.83L13.47 6.83L13.47 6.83Q12.69 6.83 12.21 7.37L12.21 7.37L12.21 7.37Q11.73 7.92 11.73 8.97L11.73 8.97L11.73 12.61L10.42 12.61ZM18.15 4.37L18.15 2.95L19.58 2.95L19.58 4.37L18.15 4.37ZM18.20 12.61L18.20 5.78L19.52 5.78L19.52 12.61L18.20 12.61ZM23.37 12.61L20.71 5.78L22.16 5.78L23.93 10.89L25.72 5.78L27.15 5.78L24.49 12.61L23.37 12.61ZM31.01 12.72L31.01 12.72Q29.96 12.72 29.22 12.24L29.22 12.24L29.22 12.24Q28.49 11.76 28.12 10.97L28.12 10.97L28.12 10.97Q27.75 10.18 27.75 9.22L27.75 9.22L27.75 9.22Q27.75 8.29 28.11 7.47L28.11 7.47L28.11 7.47Q28.46 6.66 29.17 6.16L29.17 6.16L29.17 6.16Q29.88 5.66 30.90 5.66L30.90 5.66L30.90 5.66Q31.98 5.66 32.66 6.16L32.66 6.16L32.66 6.16Q33.33 6.65 33.63 7.42L33.63 7.42L33.63 7.42Q33.92 8.19 33.92 9.04L33.92 9.04L33.92 9.04Q33.92 9.41 33.88 9.63L33.88 9.63L29.16 9.63L29.16 9.63Q29.20 10.48 29.67 11.01L29.67 11.01L29.67 11.01Q30.14 11.54 31.01 11.54L31.01 11.54L31.01 11.54Q31.57 11.54 32.00 11.37L32.00 11.37L32.00 11.37Q32.44 11.20 32.80 10.81L32.80 10.81L33.71 11.58L33.71 11.58Q33.15 12.17 32.50 12.44L32.50 12.44L32.50 12.44Q31.85 12.72 31.01 12.72L31.01 12.72ZM29.16 8.62L32.63 8.62L32.63 8.62Q32.59 7.79 32.15 7.27L32.15 7.27L32.15 7.27Q31.72 6.76 30.89 6.76L30.89 6.76L30.89 6.76Q30.10 6.76 29.66 7.28L29.66 7.28L29.66 7.28Q29.23 7.80 29.16 8.62L29.16 8.62ZM35.51 12.61L35.51 5.78L36.81 5.78L36.81 6.96L36.81 6.96Q37.05 6.34 37.58 5.99L37.58 5.99L37.58 5.99Q38.12 5.63 38.74 5.63L38.74 5.63L38.74 5.63Q39.08 5.63 39.39 5.74L39.39 5.74L39.39 5.74Q39.69 5.85 39.91 6.05L39.91 6.05L39.33 7.16L39.33 7.16Q38.99 6.91 38.53 6.91L38.53 6.91L38.53 6.91Q38.04 6.91 37.64 7.20L37.64 7.20L37.64 7.20Q37.25 7.49 37.02 8.05L37.02 8.05L37.02 8.05Q36.80 8.62 36.80 9.44L36.80 9.44L36.80 12.61L35.51 12.61ZM42.98 12.74L42.98 12.74Q42.33 12.74 41.77 12.50L41.77 12.50L41.77 12.50Q41.21 12.26 40.83 11.85L40.83 11.85L40.83 11.85Q40.45 11.44 40.28 10.94L40.28 10.94L41.36 10.44L41.36 10.44Q41.55 10.97 41.93 11.31L41.93 11.31L41.93 11.31Q42.31 11.65 42.95 11.65L42.95 11.65L42.95 11.65Q43.52 11.65 43.85 11.38L43.85 11.38L43.85 11.38Q44.18 11.10 44.18 10.67L44.18 10.67L44.18 10.67Q44.18 10.36 43.99 10.15L43.99 10.15L43.99 10.15Q43.80 9.95 43.51 9.83L43.51 9.83L43.51 9.83Q43.22 9.71 42.70 9.56L42.70 9.56L42.70 9.56Q42.05 9.37 41.64 9.18L41.64 9.18L41.64 9.18Q41.23 8.99 40.94 8.62L40.94 8.62L40.94 8.62Q40.65 8.24 40.65 7.64L40.65 7.64L40.65 7.64Q40.65 7 40.96 6.55L40.96 6.55L40.96 6.55Q41.28 6.09 41.82 5.86L41.82 5.86L41.82 5.86Q42.35 5.63 42.98 5.63L42.98 5.63L42.98 5.63Q43.80 5.63 44.42 6.01L44.42 6.01L44.42 6.01Q45.04 6.38 45.39 7.05L45.39 7.05L44.39 7.61L44.39 7.61Q43.91 6.69 42.94 6.69L42.94 6.69L42.94 6.69Q42.46 6.69 42.18 6.90L42.18 6.90L42.18 6.90Q41.89 7.12 41.89 7.46L41.89 7.46L41.89 7.46Q41.89 7.72 42.07 7.90L42.07 7.90L42.07 7.90Q42.25 8.08 42.51 8.19L42.51 8.19L42.51 8.19Q42.78 8.29 43.26 8.44L43.26 8.44L43.26 8.44Q43.96 8.65 44.40 8.86L44.40 8.86L44.40 8.86Q44.84 9.06 45.15 9.48L45.15 9.48L45.15 9.48Q45.47 9.89 45.47 10.56L45.47 10.56L45.47 10.56Q45.47 11.27 45.12 11.76L45.12 11.76L45.12 11.76Q44.77 12.26 44.20 12.50L44.20 12.50L44.20 12.50Q43.63 12.74 42.98 12.74L42.98 12.74ZM46.35 12.61L49.56 7.77L46.36 2.95L48.02 2.95L50.45 6.82L52.89 2.95L54.53 2.95L51.34 7.77L54.54 12.61L52.90 12.61L50.44 8.80L48.00 12.61L46.35 12.61ZM58.32 12.61L58.32 4.15L55.17 4.15L55.17 2.95L62.86 2.95L62.86 4.15L59.71 4.15L59.71 12.61L58.32 12.61Z"
       id="path8" />
  </g>
  <defs
     data-v-fde0c5aa=""
     id="defs16">
    <linearGradient
       data-v-fde0c5aa=""
       gradientTransform="rotate(25)"
       id="8014e6b0-57d8-4c00-86e6-1ded290b99bc"
       x1="0%"
       y1="0%"
       x2="100%"
       y2="0%">
      <stop
         data-v-fde0c5aa=""
         offset="0%"
         stop-color="#181B80"
         stop-opacity="1"
         id="stop11" />
      <stop
         data-v-fde0c5aa=""
         offset="100%"
         stop-color="#181ED9"
         stop-opacity="1"
         id="stop13" />
    </linearGradient>
  </defs>
  <!---->
  <g
     inkscape:label="Layer 1"
     id="layer1"
     transform="matrix(0.09570154,0,0,0.09570154,56.992568,140.02452)"
     style="display:inline">
    <path
       style="fill:url(#linearGradient428);stroke-width:1.07928"
       d="m 291.27482,218.75175 c -2.99069,0 -6.00189,-0.9897 -8.50367,-3.02415 -5.77955,-4.70135 -6.65593,-13.19854 -1.95566,-18.97918 8.32451,-10.23591 12.5445,-20.68013 12.5445,-31.04232 0,-22.10262 -19.6138,-44.7546 -55.22904,-63.78451 -6.57175,-3.510903 -9.05302,-11.685388 -5.54103,-18.257138 3.5109,-6.571751 11.68431,-9.053021 18.25606,-5.541036 45.46477,24.292484 69.49607,54.578234 69.49607,87.582684 0,16.7224 -6.25552,32.89437 -18.5928,48.06585 a 13.46081,13.46081 0 0 1 -10.47443,4.9798 z"
       id="path271" />
    <path
       style="fill:url(#linearGradient430);stroke-width:1.07928"
       d="m 80.046301,299.00827 c -6.852364,0 -12.718263,-5.19782 -13.409004,-12.16027 -0.736071,-7.41467 4.678689,-14.02204 12.093359,-14.75703 65.718584,-6.52102 123.887594,-22.50628 163.795134,-45.01039 6.49081,-3.66201 14.71818,-1.3653 18.37694,5.12443 3.66093,6.48972 1.36637,14.71817 -5.12443,18.37802 -43.09359,24.3022 -105.02497,41.47574 -174.382896,48.35833 -0.454377,0.0443 -0.904438,0.0669 -1.349103,0.0669 z"
       id="path269" />
    <path
       style="fill:url(#linearGradient432);stroke-width:1.07928"
       d="m 11.376959,302.35189 c -7.4502867,0 -13.4910303,-6.03966 -13.4910303,-13.49103 0,-7.45137 6.0407436,-13.49103 13.4910303,-13.49103 8.949409,0 17.977607,-0.17161 26.834198,-0.5105 7.462159,-0.2763 13.712283,5.52053 13.997213,12.96542 0.284931,7.44489 -5.51945,13.71228 -12.965419,13.99721 a 732.44421,732.44421 0 0 1 -27.865992,0.52993 z"
       id="path267" />
    <path
       style="fill:url(#linearGradient434);stroke-width:1.07928"
       d="m 24.682352,233.3048 c -20.1329338,0 -39.99173,-1.27895 -59.024875,-3.80123 -7.386609,-0.97891 -12.581195,-7.76005 -11.602286,-15.14665 0.978909,-7.38661 7.757882,-12.5812 15.146649,-11.60229 17.862124,2.36687 36.5293925,3.56703 55.480512,3.56703 48.676716,0 94.232148,-7.81401 128.275948,-22.00333 29.41908,-12.26173 46.98225,-28.4024 46.98225,-43.17561 0,-21.44643 -35.23642,-43.905213 -87.68199,-55.885247 -7.26357,-1.658857 -11.80735,-8.893287 -10.14849,-16.156858 1.65886,-7.26465 8.90408,-11.80627 16.15686,-10.147413 68.03688,15.540587 108.65675,46.265598 108.65675,82.189518 0,26.81261 -22.58182,50.99069 -63.58376,68.08113 -37.25791,15.52979 -86.500167,24.08095 -138.657568,24.08095 z"
       id="path265" />
    <path
       style="fill:url(#linearGradient215);stroke-width:1.07928"
       d="m -83.975483,218.97193 c -1.259522,0 -2.540631,-0.17808 -3.810946,-0.55152 -57.050871,-16.77096 -89.770391,-44.937 -89.770391,-77.27662 0,-7.45136 6.04074,-13.49103 13.49103,-13.49103 7.45028,0 13.49103,6.03967 13.49103,13.49103 0,18.64677 27.63287,38.81855 70.398351,51.39004 7.149167,2.10136 11.239647,9.60021 9.138284,16.7483 -1.727931,5.87777 -7.105995,9.6898 -12.937358,9.6898 z"
       id="path42" />
    <path
       style="fill:url(#linearGradient436);stroke-width:1.07928"
       d="m 62.773466,-63.559381 c -6.852364,0 -12.719343,-5.198903 -13.409005,-12.161354 -0.734991,-7.41467 4.679769,-14.020958 12.094439,-14.755949 22.789048,-2.258938 46.3228,-3.404057 69.95045,-3.404057 7.45029,0 13.49103,6.039665 13.49103,13.49103 0,7.451366 -6.04074,13.49103 -13.49103,13.49103 -22.74156,0 -45.381666,1.100868 -67.28894,3.272384 -0.452219,0.04533 -0.9012,0.06692 -1.346944,0.06692 z"
       id="path299" />
    <path
       style="fill:url(#linearGradient217);stroke-width:1.07928"
       d="m -50.702286,116.05803 c -3.0371,0 -6.092549,-1.01992 -8.611594,-3.11265 -20.513921,-17.037549 -24.820257,-34.21109 -24.820257,-45.618026 0,-26.812612 22.580746,-50.990697 63.584843,-68.08113362 C 16.707534,-16.282495 65.949794,-24.833649 118.10612,-24.833649 c 52.15632,0 101.39858,8.552233 138.65541,24.07986938 41.00193,17.08935762 63.58376,41.26852162 63.58376,68.08113362 0,7.451366 -6.04074,13.49103 -13.49103,13.49103 -7.45029,0 -13.49103,-6.039664 -13.49103,-13.49103 0,-14.773217 -17.56316,-30.913886 -46.98224,-43.175613 C 212.33826,9.9624153 166.78283,2.1484107 118.10612,2.1484107 c -48.67672,0 -94.23215,7.8140046 -128.275955,22.0033303 -29.41908,12.261727 -46.982242,28.402396 -46.982242,43.175613 0,10.19814 8.199308,19.148629 15.077575,24.86127 5.732069,4.760715 6.519945,13.266536 1.75923,18.997526 a 13.466207,13.466207 0 0 1 -10.387014,4.87188 z"
       id="path44" />
    <path
       d="m -101.71457,131.94183 c -2.14561,0 -4.32145,-0.51266 -6.34618,-1.59518 -57.43833,-30.69155 -69.49499,-64.568066 -69.49499,-87.582684 0,-27.841169 17.53402,-54.254447 50.70576,-76.385133 29.854034,-19.917077 71.738826,-36.007019 121.1246298,-46.532181 7.2894733,-1.552008 14.4537499,3.095382 16.0068372,10.382697 1.553087,7.287315 -3.0953819,14.45375 -10.38269662,16.006837 -46.08104138,9.819311 -84.73122338,24.54612 -111.77372038,42.587404 -17.65383,11.77820907 -38.69767,30.695871 -38.69767,53.939297 0,22.101545 19.6138,44.754603 55.229036,63.784513 6.57175,3.51198 9.051941,11.68539 5.541036,18.25714 a 13.49103,13.49103 0 0 1 -11.912042,7.13729 z"
       id="path46"
       style="fill:url(#linearGradient219);stroke-width:1.07928" />
    <g
       style="fill:none;stroke:none;stroke-linecap:square;stroke-miterlimit:10"
       id="g23546"
       transform="matrix(0.91159354,0,0,0.91159354,-16.11875,16.722597)">
      <g
         clip-path="url(#p.0)"
         id="g23534">
        <path
           fill="#000000"
           fill-opacity="0"
           d="M 0,0 H 192 V 192 H 0 Z"
           fill-rule="evenodd"
           id="path23528" />
        <path
           fill="#ffffff"
           d="M 36.331413,11.999546 14.223697,110.9088 C 12.103426,120.34277 12,129.26081 13.913413,137.66294 c 1.939273,8.37757 5.507536,15.711 10.704788,22.00031 5.22311,6.28931 11.855427,11.25197 19.896946,14.88798 8.067375,3.61144 17.091461,5.41716 27.072254,5.41716 9.851509,0 19.470306,-1.75657 28.856389,-5.26976 9.38608,-3.51316 17.94474,-8.27929 25.67598,-14.29835 7.73124,-6.04364 14.35063,-13.13141 19.85815,-21.26328 5.50754,-8.15646 9.30852,-16.90254 11.40294,-26.23822 L 179.95399,11.999547 H 136.39792 L 114.2902,110.94565 c -0.82743,3.75885 -2.4047,7.33344 -4.73183,10.72377 -2.30127,3.39033 -5.08089,6.363 -8.33887,8.91804 -3.257985,2.55505 -6.839169,4.56958 -10.743581,6.04364 -3.904403,1.44949 -7.834663,2.17424 -11.790779,2.17424 -3.826828,0 -7.252884,-0.67561 -10.278145,-2.02683 -2.999412,-1.35122 -5.455826,-3.16923 -7.369243,-5.45402 -1.913414,-2.30934 -3.232121,-5.03635 -3.956116,-8.18102 -0.723995,-3.16922 -0.685211,-6.5964 0.116356,-10.28154 L 79.771132,11.999547 Z"
           fill-rule="evenodd"
           id="path23530" />
        <path
           stroke="#000000"
           stroke-width="4"
           stroke-linejoin="round"
           stroke-linecap="butt"
           d="M 36.331413,11.999546 14.223697,110.9088 C 12.103426,120.34277 12,129.26081 13.913413,137.66294 c 1.939273,8.37757 5.507536,15.711 10.704788,22.00031 5.22311,6.28931 11.855427,11.25197 19.896946,14.88798 8.067375,3.61144 17.091461,5.41716 27.072254,5.41716 9.851509,0 19.470306,-1.75657 28.856389,-5.26976 9.38608,-3.51316 17.94474,-8.27929 25.67598,-14.29835 7.73124,-6.04364 14.35063,-13.13141 19.85815,-21.26328 5.50754,-8.15646 9.30852,-16.90254 11.40294,-26.23822 L 179.95399,11.999547 H 136.39792 L 114.2902,110.94565 c -0.82743,3.75885 -2.4047,7.33344 -4.73183,10.72377 -2.30127,3.39033 -5.08089,6.363 -8.33887,8.91804 -3.257985,2.55505 -6.839169,4.56958 -10.743581,6.04364 -3.904403,1.44949 -7.834663,2.17424 -11.790779,2.17424 -3.826828,0 -7.252884,-0.67561 -10.278145,-2.02683 -2.999412,-1.35122 -5.455826,-3.16923 -7.369243,-5.45402 -1.913414,-2.30934 -3.232121,-5.03635 -3.956116,-8.18102 -0.723995,-3.16922 -0.685211,-6.5964 0.116356,-10.28154 L 79.771132,11.999547 Z"
           fill-rule="evenodd"
           id="path23532" />
      </g>
    </g>
  </g>
</svg>
