<?xml version="1.0" encoding="UTF-8" standalone="no"?>
<svg
   data-v-fde0c5aa=""
   viewBox="0 0 300 300"
   class="font"
   version="1.1"
   id="svg750"
   sodipodi:docname="GradientTextSquare.svg"
   inkscape:version="1.1.1 (3bf5ae0d25, 2021-09-20)"
   inkscape:export-filename="C:\Users\dmtho\Downloads\UniversXTLogos\png\GradientTextSquare\16x16.png"
   inkscape:export-xdpi="5.1199999"
   inkscape:export-ydpi="5.1199999"
   xmlns:inkscape="http://www.inkscape.org/namespaces/inkscape"
   xmlns:sodipodi="http://sodipodi.sourceforge.net/DTD/sodipodi-0.dtd"
   xmlns="http://www.w3.org/2000/svg"
   xmlns:svg="http://www.w3.org/2000/svg">
  <sodipodi:namedview
     id="namedview752"
     pagecolor="#505050"
     bordercolor="#eeeeee"
     borderopacity="1"
     inkscape:pageshadow="0"
     inkscape:pageopacity="0"
     inkscape:pagecheckerboard="0"
     showgrid="false"
     inkscape:zoom="2.7733333"
     inkscape:cx="149.81971"
     inkscape:cy="150.18029"
     inkscape:window-width="1920"
     inkscape:window-height="1017"
     inkscape:window-x="-8"
     inkscape:window-y="-8"
     inkscape:window-maximized="1"
     inkscape:current-layer="svg750" />
  <!---->
  <defs
     data-v-fde0c5aa=""
     id="defs736">
    <!---->
  </defs>
  <rect
     data-v-fde0c5aa=""
     fill="#E6E6F1"
     x="0"
     y="0"
     width="300px"
     height="300px"
     class="logo-background-square"
     id="rect738" />
  <defs
     data-v-fde0c5aa=""
     id="defs745">
    <linearGradient
       data-v-fde0c5aa=""
       gradientTransform="rotate(25)"
       id="77c93778-7f3c-42e8-9cd1-b3bde3b36273"
       x1="0%"
       y1="0%"
       x2="100%"
       y2="0%">
      <stop
         data-v-fde0c5aa=""
         offset="0%"
         stop-color="#181B80"
         stop-opacity="1"
         id="stop740" />
      <stop
         data-v-fde0c5aa=""
         offset="100%"
         stop-color="#181ED9"
         stop-opacity="1"
         id="stop742" />
    </linearGradient>
  </defs>
  <g
     data-v-fde0c5aa=""
     id="eca8fdda-895a-4acd-a645-90f937ec5253"
     fill="url(#77c93778-7f3c-42e8-9cd1-b3bde3b36273)"
     transform="matrix(3.565062441482939,0,0,3.565062441482939,35.90017827729233,122.0320850445691)">
    <path
       d="M4.66 12.74L4.66 12.74Q3.46 12.74 2.67 12.26L2.67 12.26L2.67 12.26Q1.89 11.77 1.52 10.92L1.52 10.92L1.52 10.92Q1.15 10.07 1.15 8.96L1.15 8.96L1.15 2.95L2.54 2.95L2.54 8.70L2.54 8.70Q2.54 10.01 3.01 10.71L3.01 10.71L3.01 10.71Q3.49 11.41 4.66 11.41L4.66 11.41L4.66 11.41Q5.84 11.41 6.32 10.71L6.32 10.71L6.32 10.71Q6.80 10.01 6.80 8.70L6.80 8.70L6.80 2.95L8.20 2.95L8.20 8.89L8.20 8.89Q8.20 10.03 7.82 10.89L7.82 10.89L7.82 10.89Q7.45 11.76 6.66 12.25L6.66 12.25L6.66 12.25Q5.87 12.74 4.66 12.74L4.66 12.74ZM10.42 12.61L10.42 5.78L11.73 5.78L11.73 6.78L11.73 6.78Q12.10 6.23 12.65 5.94L12.65 5.94L12.65 5.94Q13.21 5.65 13.84 5.65L13.84 5.65L13.84 5.65Q14.66 5.65 15.19 6.03L15.19 6.03L15.19 6.03Q15.72 6.42 15.97 7.06L15.97 7.06L15.97 7.06Q16.22 7.70 16.22 8.48L16.22 8.48L16.22 12.61L14.91 12.61L14.91 8.63L14.91 8.63Q14.91 7.86 14.55 7.35L14.55 7.35L14.55 7.35Q14.20 6.83 13.47 6.83L13.47 6.83L13.47 6.83Q12.69 6.83 12.21 7.37L12.21 7.37L12.21 7.37Q11.73 7.92 11.73 8.97L11.73 8.97L11.73 12.61L10.42 12.61ZM18.15 4.37L18.15 2.95L19.58 2.95L19.58 4.37L18.15 4.37ZM18.20 12.61L18.20 5.78L19.52 5.78L19.52 12.61L18.20 12.61ZM23.37 12.61L20.71 5.78L22.16 5.78L23.93 10.89L25.72 5.78L27.15 5.78L24.49 12.61L23.37 12.61ZM31.01 12.72L31.01 12.72Q29.96 12.72 29.22 12.24L29.22 12.24L29.22 12.24Q28.49 11.76 28.12 10.97L28.12 10.97L28.12 10.97Q27.75 10.18 27.75 9.22L27.75 9.22L27.75 9.22Q27.75 8.29 28.11 7.47L28.11 7.47L28.11 7.47Q28.46 6.66 29.17 6.16L29.17 6.16L29.17 6.16Q29.88 5.66 30.90 5.66L30.90 5.66L30.90 5.66Q31.98 5.66 32.66 6.16L32.66 6.16L32.66 6.16Q33.33 6.65 33.63 7.42L33.63 7.42L33.63 7.42Q33.92 8.19 33.92 9.04L33.92 9.04L33.92 9.04Q33.92 9.41 33.88 9.63L33.88 9.63L29.16 9.63L29.16 9.63Q29.20 10.48 29.67 11.01L29.67 11.01L29.67 11.01Q30.14 11.54 31.01 11.54L31.01 11.54L31.01 11.54Q31.57 11.54 32.00 11.37L32.00 11.37L32.00 11.37Q32.44 11.20 32.80 10.81L32.80 10.81L33.71 11.58L33.71 11.58Q33.15 12.17 32.50 12.44L32.50 12.44L32.50 12.44Q31.85 12.72 31.01 12.72L31.01 12.72ZM29.16 8.62L32.63 8.62L32.63 8.62Q32.59 7.79 32.15 7.27L32.15 7.27L32.15 7.27Q31.72 6.76 30.89 6.76L30.89 6.76L30.89 6.76Q30.10 6.76 29.66 7.28L29.66 7.28L29.66 7.28Q29.23 7.80 29.16 8.62L29.16 8.62ZM35.51 12.61L35.51 5.78L36.81 5.78L36.81 6.96L36.81 6.96Q37.05 6.34 37.58 5.99L37.58 5.99L37.58 5.99Q38.12 5.63 38.74 5.63L38.74 5.63L38.74 5.63Q39.08 5.63 39.39 5.74L39.39 5.74L39.39 5.74Q39.69 5.85 39.91 6.05L39.91 6.05L39.33 7.16L39.33 7.16Q38.99 6.91 38.53 6.91L38.53 6.91L38.53 6.91Q38.04 6.91 37.64 7.20L37.64 7.20L37.64 7.20Q37.25 7.49 37.02 8.05L37.02 8.05L37.02 8.05Q36.80 8.62 36.80 9.44L36.80 9.44L36.80 12.61L35.51 12.61ZM42.98 12.74L42.98 12.74Q42.33 12.74 41.77 12.50L41.77 12.50L41.77 12.50Q41.21 12.26 40.83 11.85L40.83 11.85L40.83 11.85Q40.45 11.44 40.28 10.94L40.28 10.94L41.36 10.44L41.36 10.44Q41.55 10.97 41.93 11.31L41.93 11.31L41.93 11.31Q42.31 11.65 42.95 11.65L42.95 11.65L42.95 11.65Q43.52 11.65 43.85 11.38L43.85 11.38L43.85 11.38Q44.18 11.10 44.18 10.67L44.18 10.67L44.18 10.67Q44.18 10.36 43.99 10.15L43.99 10.15L43.99 10.15Q43.80 9.95 43.51 9.83L43.51 9.83L43.51 9.83Q43.22 9.71 42.70 9.56L42.70 9.56L42.70 9.56Q42.05 9.37 41.64 9.18L41.64 9.18L41.64 9.18Q41.23 8.99 40.94 8.62L40.94 8.62L40.94 8.62Q40.65 8.24 40.65 7.64L40.65 7.64L40.65 7.64Q40.65 7 40.96 6.55L40.96 6.55L40.96 6.55Q41.28 6.09 41.82 5.86L41.82 5.86L41.82 5.86Q42.35 5.63 42.98 5.63L42.98 5.63L42.98 5.63Q43.80 5.63 44.42 6.01L44.42 6.01L44.42 6.01Q45.04 6.38 45.39 7.05L45.39 7.05L44.39 7.61L44.39 7.61Q43.91 6.69 42.94 6.69L42.94 6.69L42.94 6.69Q42.46 6.69 42.18 6.90L42.18 6.90L42.18 6.90Q41.89 7.12 41.89 7.46L41.89 7.46L41.89 7.46Q41.89 7.72 42.07 7.90L42.07 7.90L42.07 7.90Q42.25 8.08 42.51 8.19L42.51 8.19L42.51 8.19Q42.78 8.29 43.26 8.44L43.26 8.44L43.26 8.44Q43.96 8.65 44.40 8.86L44.40 8.86L44.40 8.86Q44.84 9.06 45.15 9.48L45.15 9.48L45.15 9.48Q45.47 9.89 45.47 10.56L45.47 10.56L45.47 10.56Q45.47 11.27 45.12 11.76L45.12 11.76L45.12 11.76Q44.77 12.26 44.20 12.50L44.20 12.50L44.20 12.50Q43.63 12.74 42.98 12.74L42.98 12.74ZM46.35 12.61L49.56 7.77L46.36 2.95L48.02 2.95L50.45 6.82L52.89 2.95L54.53 2.95L51.34 7.77L54.54 12.61L52.90 12.61L50.44 8.80L48.00 12.61L46.35 12.61ZM58.32 12.61L58.32 4.15L55.17 4.15L55.17 2.95L62.86 2.95L62.86 4.15L59.71 4.15L59.71 12.61L58.32 12.61Z"
       id="path747" />
  </g>
  <!---->
  <!---->
</svg>
