<?xml version="1.0" encoding="UTF-8" standalone="no"?>
<!-- Created with Inkscape (http://www.inkscape.org/) -->

<svg
   width="497.9021mm"
   height="396.23264mm"
   viewBox="0 0 497.9021 396.23264"
   version="1.1"
   id="svg28624"
   inkscape:export-filename="C:\Users\dmtho\Downloads\UniversXTLogos\png\IconRectangle\16x13.png"
   inkscape:export-xdpi="0.81622469"
   inkscape:export-ydpi="0.81622469"
   inkscape:version="1.1.1 (3bf5ae0d25, 2021-09-20)"
   sodipodi:docname="IconRectangle.svg"
   xmlns:inkscape="http://www.inkscape.org/namespaces/inkscape"
   xmlns:sodipodi="http://sodipodi.sourceforge.net/DTD/sodipodi-0.dtd"
   xmlns:xlink="http://www.w3.org/1999/xlink"
   xmlns="http://www.w3.org/2000/svg"
   xmlns:svg="http://www.w3.org/2000/svg">
  <sodipodi:namedview
     id="namedview28626"
     pagecolor="#505050"
     bordercolor="#eeeeee"
     borderopacity="1"
     inkscape:pageshadow="0"
     inkscape:pageopacity="0"
     inkscape:pagecheckerboard="0"
     inkscape:document-units="mm"
     showgrid="false"
     fit-margin-top="0"
     fit-margin-left="0"
     fit-margin-right="0"
     fit-margin-bottom="0"
     inkscape:snap-bbox="true"
     inkscape:snap-bbox-midpoints="false"
     inkscape:zoom="0.37059484"
     inkscape:cx="961.96698"
     inkscape:cy="894.50787"
     inkscape:window-width="1920"
     inkscape:window-height="1017"
     inkscape:window-x="-8"
     inkscape:window-y="-8"
     inkscape:window-maximized="1"
     inkscape:current-layer="layer1">
    <inkscape:grid
       type="xygrid"
       id="grid830" />
  </sodipodi:namedview>
  <defs
     id="defs28621">
    <linearGradient
       inkscape:collect="always"
       xlink:href="#93d4a404-efd9-4d4a-a6f8-e924888453f4"
       id="linearGradient215"
       gradientTransform="matrix(1.5425595,0,0,0.75514137,-204.9026,-172.06072)"
       x1="17.727535"
       y1="305.46896"
       x2="340.50204"
       y2="305.46896"
       gradientUnits="userSpaceOnUse" />
    <linearGradient
       data-v-423bf9ae=""
       gradientTransform="rotate(25)"
       id="93d4a404-efd9-4d4a-a6f8-e924888453f4"
       x1="0"
       y1="0"
       x2="1"
       y2="0">
      <stop
         data-v-423bf9ae=""
         offset="0%"
         style="stop-color: rgb(24, 27, 128); stop-opacity: 1;"
         id="stop35" />
      <stop
         data-v-423bf9ae=""
         offset="100%"
         style="stop-color: rgb(24, 30, 217); stop-opacity: 1;"
         id="stop37" />
    </linearGradient>
    <linearGradient
       inkscape:collect="always"
       xlink:href="#93d4a404-efd9-4d4a-a6f8-e924888453f4"
       id="linearGradient217"
       gradientTransform="matrix(1.3903402,0,0,0.83781685,-204.9026,-172.06072)"
       x1="86.862518"
       y1="93.313927"
       x2="377.78369"
       y2="93.313927"
       gradientUnits="userSpaceOnUse" />
    <linearGradient
       inkscape:collect="always"
       xlink:href="#93d4a404-efd9-4d4a-a6f8-e924888453f4"
       id="linearGradient219"
       gradientTransform="matrix(1.0157816,0,0,1.1467529,-204.9026,-172.06072)"
       x1="26.921986"
       y1="79.885193"
       x2="212.13536"
       y2="79.885193"
       gradientUnits="userSpaceOnUse" />
    <linearGradient
       inkscape:collect="always"
       xlink:href="#93d4a404-efd9-4d4a-a6f8-e924888453f4"
       id="linearGradient28766"
       gradientUnits="userSpaceOnUse"
       gradientTransform="matrix(1.5425595,0,0,0.75514137,-204.9026,-172.06072)"
       x1="17.727535"
       y1="305.46896"
       x2="340.50204"
       y2="305.46896" />
    <linearGradient
       inkscape:collect="always"
       xlink:href="#93d4a404-efd9-4d4a-a6f8-e924888453f4"
       id="linearGradient28768"
       gradientUnits="userSpaceOnUse"
       gradientTransform="matrix(1.5425595,0,0,0.75514137,-204.9026,-172.06072)"
       x1="17.727535"
       y1="305.46896"
       x2="340.50204"
       y2="305.46896" />
    <linearGradient
       inkscape:collect="always"
       xlink:href="#93d4a404-efd9-4d4a-a6f8-e924888453f4"
       id="linearGradient28770"
       gradientUnits="userSpaceOnUse"
       gradientTransform="matrix(1.5425595,0,0,0.75514137,-204.9026,-172.06072)"
       x1="17.727535"
       y1="305.46896"
       x2="340.50204"
       y2="305.46896" />
    <linearGradient
       inkscape:collect="always"
       xlink:href="#93d4a404-efd9-4d4a-a6f8-e924888453f4"
       id="linearGradient28772"
       gradientUnits="userSpaceOnUse"
       gradientTransform="matrix(1.5425595,0,0,0.75514137,-204.9026,-172.06072)"
       x1="17.727535"
       y1="305.46896"
       x2="340.50204"
       y2="305.46896" />
    <linearGradient
       inkscape:collect="always"
       xlink:href="#93d4a404-efd9-4d4a-a6f8-e924888453f4"
       id="linearGradient28774"
       gradientUnits="userSpaceOnUse"
       gradientTransform="matrix(1.3903402,0,0,0.83781685,-204.9026,-172.06072)"
       x1="86.862518"
       y1="93.313927"
       x2="377.78369"
       y2="93.313927" />
  </defs>
  <g
     inkscape:label="Layer 1"
     inkscape:groupmode="layer"
     id="layer1"
     transform="translate(177.55682,93.880741)">
    <path
       style="fill:url(#linearGradient28766);stroke-width:1.07928"
       d="m 291.27482,218.75175 c -2.99069,0 -6.00189,-0.9897 -8.50367,-3.02415 -5.77955,-4.70135 -6.65593,-13.19854 -1.95566,-18.97918 8.32451,-10.23591 12.5445,-20.68013 12.5445,-31.04232 0,-22.10262 -19.6138,-44.7546 -55.22904,-63.78451 -6.57175,-3.510903 -9.05302,-11.685388 -5.54103,-18.257138 3.5109,-6.571751 11.68431,-9.053021 18.25606,-5.541036 45.46477,24.292484 69.49607,54.578234 69.49607,87.582684 0,16.7224 -6.25552,32.89437 -18.5928,48.06585 a 13.46081,13.46081 0 0 1 -10.47443,4.9798 z"
       id="path271" />
    <path
       style="fill:url(#linearGradient28768);stroke-width:1.07928"
       d="m 80.046301,299.00827 c -6.852364,0 -12.718263,-5.19782 -13.409004,-12.16027 -0.736071,-7.41467 4.678689,-14.02204 12.093359,-14.75703 65.718584,-6.52102 123.887594,-22.50628 163.795134,-45.01039 6.49081,-3.66201 14.71818,-1.3653 18.37694,5.12443 3.66093,6.48972 1.36637,14.71817 -5.12443,18.37802 -43.09359,24.3022 -105.02497,41.47574 -174.382896,48.35833 -0.454377,0.0443 -0.904438,0.0669 -1.349103,0.0669 z"
       id="path269" />
    <path
       style="fill:url(#linearGradient28770);stroke-width:1.07928"
       d="m 11.376959,302.35189 c -7.4502867,0 -13.4910303,-6.03966 -13.4910303,-13.49103 0,-7.45137 6.0407436,-13.49103 13.4910303,-13.49103 8.949409,0 17.977607,-0.17161 26.834198,-0.5105 7.462159,-0.2763 13.712283,5.52053 13.997213,12.96542 0.284931,7.44489 -5.51945,13.71228 -12.965419,13.99721 a 732.44421,732.44421 0 0 1 -27.865992,0.52993 z"
       id="path267" />
    <path
       style="fill:url(#linearGradient28772);stroke-width:1.07928"
       d="m 24.682352,233.3048 c -20.1329338,0 -39.99173,-1.27895 -59.024875,-3.80123 -7.386609,-0.97891 -12.581195,-7.76005 -11.602286,-15.14665 0.978909,-7.38661 7.757882,-12.5812 15.146649,-11.60229 17.862124,2.36687 36.5293925,3.56703 55.480512,3.56703 48.676716,0 94.232148,-7.81401 128.275948,-22.00333 29.41908,-12.26173 46.98225,-28.4024 46.98225,-43.17561 0,-21.44643 -35.23642,-43.905213 -87.68199,-55.885247 -7.26357,-1.658857 -11.80735,-8.893287 -10.14849,-16.156858 1.65886,-7.26465 8.90408,-11.80627 16.15686,-10.147413 68.03688,15.540587 108.65675,46.265598 108.65675,82.189518 0,26.81261 -22.58182,50.99069 -63.58376,68.08113 -37.25791,15.52979 -86.500167,24.08095 -138.657568,24.08095 z"
       id="path265" />
    <path
       style="fill:url(#linearGradient215);stroke-width:1.07928"
       d="m -83.975483,218.97193 c -1.259522,0 -2.540631,-0.17808 -3.810946,-0.55152 -57.050871,-16.77096 -89.770391,-44.937 -89.770391,-77.27662 0,-7.45136 6.04074,-13.49103 13.49103,-13.49103 7.45028,0 13.49103,6.03967 13.49103,13.49103 0,18.64677 27.63287,38.81855 70.398351,51.39004 7.149167,2.10136 11.239647,9.60021 9.138284,16.7483 -1.727931,5.87777 -7.105995,9.6898 -12.937358,9.6898 z"
       id="path42" />
    <path
       style="fill:url(#linearGradient28774);stroke-width:1.07928"
       d="m 62.773466,-63.559381 c -6.852364,0 -12.719343,-5.198903 -13.409005,-12.161354 -0.734991,-7.41467 4.679769,-14.020958 12.094439,-14.755949 22.789048,-2.258938 46.3228,-3.404057 69.95045,-3.404057 7.45029,0 13.49103,6.039665 13.49103,13.49103 0,7.451366 -6.04074,13.49103 -13.49103,13.49103 -22.74156,0 -45.381666,1.100868 -67.28894,3.272384 -0.452219,0.04533 -0.9012,0.06692 -1.346944,0.06692 z"
       id="path299" />
    <path
       style="fill:url(#linearGradient217);stroke-width:1.07928"
       d="m -50.702286,116.05803 c -3.0371,0 -6.092549,-1.01992 -8.611594,-3.11265 -20.513921,-17.037549 -24.820257,-34.21109 -24.820257,-45.618026 0,-26.812612 22.580746,-50.990697 63.584843,-68.08113362 C 16.707534,-16.282495 65.949794,-24.833649 118.10612,-24.833649 c 52.15632,0 101.39858,8.552233 138.65541,24.07986938 41.00193,17.08935762 63.58376,41.26852162 63.58376,68.08113362 0,7.451366 -6.04074,13.49103 -13.49103,13.49103 -7.45029,0 -13.49103,-6.039664 -13.49103,-13.49103 0,-14.773217 -17.56316,-30.913886 -46.98224,-43.175613 C 212.33826,9.9624153 166.78283,2.1484107 118.10612,2.1484107 c -48.67672,0 -94.23215,7.8140046 -128.275955,22.0033303 -29.41908,12.261727 -46.982242,28.402396 -46.982242,43.175613 0,10.19814 8.199308,19.148629 15.077575,24.86127 5.732069,4.760715 6.519945,13.266536 1.75923,18.997526 a 13.466207,13.466207 0 0 1 -10.387014,4.87188 z"
       id="path44" />
    <path
       d="m -101.71457,131.94183 c -2.14561,0 -4.32145,-0.51266 -6.34618,-1.59518 -57.43833,-30.69155 -69.49499,-64.568066 -69.49499,-87.582684 0,-27.841169 17.53402,-54.254447 50.70576,-76.385133 29.854034,-19.917077 71.738826,-36.007019 121.1246298,-46.532181 7.2894733,-1.552008 14.4537499,3.095382 16.0068372,10.382697 1.553087,7.287315 -3.0953819,14.45375 -10.38269662,16.006837 -46.08104138,9.819311 -84.73122338,24.54612 -111.77372038,42.587404 -17.65383,11.77820907 -38.69767,30.695871 -38.69767,53.939297 0,22.101545 19.6138,44.754603 55.229036,63.784513 6.57175,3.51198 9.051941,11.68539 5.541036,18.25714 a 13.49103,13.49103 0 0 1 -11.912042,7.13729 z"
       id="path46"
       style="fill:url(#linearGradient219);stroke-width:1.07928" />
    <g
       style="fill:none;stroke:none;stroke-linecap:square;stroke-miterlimit:10"
       id="g23546"
       transform="matrix(0.91159354,0,0,0.91159354,-16.11875,16.722597)">
      <g
         clip-path="url(#p.0)"
         id="g23534">
        <path
           fill="#000000"
           fill-opacity="0"
           d="M 0,0 H 192 V 192 H 0 Z"
           fill-rule="evenodd"
           id="path23528" />
        <path
           fill="#ffffff"
           d="M 36.331413,11.999546 14.223697,110.9088 C 12.103426,120.34277 12,129.26081 13.913413,137.66294 c 1.939273,8.37757 5.507536,15.711 10.704788,22.00031 5.22311,6.28931 11.855427,11.25197 19.896946,14.88798 8.067375,3.61144 17.091461,5.41716 27.072254,5.41716 9.851509,0 19.470306,-1.75657 28.856389,-5.26976 9.38608,-3.51316 17.94474,-8.27929 25.67598,-14.29835 7.73124,-6.04364 14.35063,-13.13141 19.85815,-21.26328 5.50754,-8.15646 9.30852,-16.90254 11.40294,-26.23822 L 179.95399,11.999547 H 136.39792 L 114.2902,110.94565 c -0.82743,3.75885 -2.4047,7.33344 -4.73183,10.72377 -2.30127,3.39033 -5.08089,6.363 -8.33887,8.91804 -3.257985,2.55505 -6.839169,4.56958 -10.743581,6.04364 -3.904403,1.44949 -7.834663,2.17424 -11.790779,2.17424 -3.826828,0 -7.252884,-0.67561 -10.278145,-2.02683 -2.999412,-1.35122 -5.455826,-3.16923 -7.369243,-5.45402 -1.913414,-2.30934 -3.232121,-5.03635 -3.956116,-8.18102 -0.723995,-3.16922 -0.685211,-6.5964 0.116356,-10.28154 L 79.771132,11.999547 Z"
           fill-rule="evenodd"
           id="path23530" />
        <path
           stroke="#000000"
           stroke-width="4"
           stroke-linejoin="round"
           stroke-linecap="butt"
           d="M 36.331413,11.999546 14.223697,110.9088 C 12.103426,120.34277 12,129.26081 13.913413,137.66294 c 1.939273,8.37757 5.507536,15.711 10.704788,22.00031 5.22311,6.28931 11.855427,11.25197 19.896946,14.88798 8.067375,3.61144 17.091461,5.41716 27.072254,5.41716 9.851509,0 19.470306,-1.75657 28.856389,-5.26976 9.38608,-3.51316 17.94474,-8.27929 25.67598,-14.29835 7.73124,-6.04364 14.35063,-13.13141 19.85815,-21.26328 5.50754,-8.15646 9.30852,-16.90254 11.40294,-26.23822 L 179.95399,11.999547 H 136.39792 L 114.2902,110.94565 c -0.82743,3.75885 -2.4047,7.33344 -4.73183,10.72377 -2.30127,3.39033 -5.08089,6.363 -8.33887,8.91804 -3.257985,2.55505 -6.839169,4.56958 -10.743581,6.04364 -3.904403,1.44949 -7.834663,2.17424 -11.790779,2.17424 -3.826828,0 -7.252884,-0.67561 -10.278145,-2.02683 -2.999412,-1.35122 -5.455826,-3.16923 -7.369243,-5.45402 -1.913414,-2.30934 -3.232121,-5.03635 -3.956116,-8.18102 -0.723995,-3.16922 -0.685211,-6.5964 0.116356,-10.28154 L 79.771132,11.999547 Z"
           fill-rule="evenodd"
           id="path23532" />
      </g>
    </g>
  </g>
</svg>
